<svg xmlns="http://www.w3.org/2000/svg" width="256" height="256"><path fill="#1976D2" fill-opacity=".016" fill-rule="evenodd" d="M0 128.004v128.004l128.25-.254 128.25-.254.254-127.75L257.008 0H0v128.004m.485.496c0 70.4.119 99.053.265 63.672.146-35.38.146-92.98 0-128C.604 29.153.485 58.1.485 128.5"/><path fill="#1976D2" fill-opacity=".103" fill-rule="evenodd" d="M179.5 30.996c-18.255 1.62-30.665 4.882-46.829 12.31-9.575 4.4-10.624 4.244-10.656-1.587-.009-1.624-.685-3.039-1.625-3.399-.885-.34-6.193.516-11.796 1.903-20.03 4.956-39.852 17.384-50.904 31.915-10.12 13.306-9.043 12.283-11.382 10.822-1.848-1.154-2.549-.937-6.119 1.89-4.504 3.568-12.324 13.755-17.072 22.24-7.597 13.579-11.406 31.544-11.428 53.91-.015 15.403 1.708 32.873 3.647 36.98 1.697 3.591 12.903 11.701 22.164 16.039 20.791 9.738 51.012 13.002 90.85 9.812 10.822-.867 14.993-1.562 15.378-2.564.29-.756-.256-3.111-1.213-5.233-.957-2.123-1.563-4.389-1.347-5.037.215-.647 4.204-2.412 8.862-3.922 17.198-5.574 28.796-12.954 41.97-26.706 8.674-9.054 19.361-23.772 18.708-25.764-.199-.608-1.79-1.246-3.535-1.418-1.745-.173-3.173-.575-3.173-.894 0-.319 3.518-4.245 7.818-8.724 18.008-18.757 26.794-37.905 31.158-67.908 1.829-12.574 2.692-37.13 1.334-37.969-1.526-.943-25.803-5.5-32.31-6.065-13.876-1.204-23.856-1.398-32.5-.631m1.5 6.678c-21.374 2.163-38.804 7.678-54.268 17.171C123.01 57.13 119.33 59 118.554 59c-.962 0-1.632-1.774-2.107-5.579-.433-3.462-1.252-5.793-2.158-6.14-2.408-.924-13.203 2.525-22.789 7.281-10.991 5.453-19.822 12.391-27.044 21.248-5.45 6.683-6.809 8.872-14.557 23.44-2.267 4.263-4.695 7.75-5.395 7.75-.794 0-1.533-2.073-1.961-5.5-.378-3.025-1.05-5.5-1.494-5.5-1.166 0-7.193 7.694-10.437 13.321-3.332 5.779-7.065 16.425-9.357 26.679-1.866 8.348-2.259 41.709-.59 50l.906 4.5 11.965-.068c17.55-.1 29.786-4.013 46.049-14.728 7.746-5.103 21.113-17.691 24.031-22.631 2.2-3.724 5.879-5.007 8.071-2.814 2.109 2.109 1.099 4.532-4.609 11.054-7.841 8.96-19.998 19.407-28.221 24.25-13.106 7.719-23.086 10.989-39.134 12.821-5.378.614-9.878 1.566-10 2.116-.347 1.555 17.898 10.179 26.37 12.465 14.918 4.025 28.679 5.283 52.937 4.838 12.391-.227 23.089-.758 23.772-1.181.935-.578.578-1.99-1.441-5.7-1.476-2.713-2.44-5.177-2.141-5.475.299-.299 5.34-1.628 11.203-2.952 20.599-4.655 40.047-17.06 53.747-34.281l6.135-7.714-8.164-.5c-4.667-.286-8.072-.928-7.95-1.5.118-.55 4.766-4.465 10.328-8.7 12.071-9.19 20.249-17.662 25.387-26.3 12.379-20.81 17.929-41.21 18.369-67.521l.225-13.454-9.5-1.66c-17.217-3.008-36.883-4.316-48-3.191M39.459 100.067c-.363.586-.445 1.281-.183 1.543s.743-.218 1.069-1.067c.676-1.762.1-2.072-.886-.476"/><path fill="#1976D2" fill-opacity=".036" fill-rule="evenodd" d="M165 33.897c-11.557 2.094-23.422 5.993-34.077 11.2-4.393 2.147-8.139 3.903-8.326 3.903-.187 0-.646-2.308-1.02-5.129l-.68-5.129-4.699.625c-8.243 1.096-23.825 6.657-32.137 11.47C71 58.4 60.419 68.479 51.25 82.095l-3.602 5.349-.907-2.722C46.242 83.225 45.522 82 45.142 82c-1.284 0-11.219 10.19-15.234 15.625-15.664 21.204-21.311 54.037-15.777 91.73 1.27 8.651 1.404 8.946 5.834 12.849 8.607 7.582 22.727 14.46 37.535 18.283 16.187 4.179 50.521 5.355 72.5 2.483 9.268-1.212 13.419-1.781 13.767-1.888.147-.045-.866-2.317-2.25-5.049-1.384-2.731-2.517-5.324-2.517-5.762 0-.437 3.488-1.838 7.75-3.112 15.245-4.56 30.734-13.583 42-24.469 4.447-4.297 5.371-6.057 2.626-5.004-1.393.534-1.357.213.25-2.25l1.874-2.873.341 2.381c.224 1.565.6 1.96 1.099 1.153.417-.674.546-2.337.286-3.694-.462-2.416-.553-2.377-4.289 1.792-2.1 2.343-3.38 4.531-2.844 4.863.536.331.662 1.417.28 2.412-.632 1.646-.802 1.664-1.874.197-1.072-1.466-1.374-1.432-3.305.367-1.278 1.19-1.902 2.676-1.566 3.723.448 1.394.358 1.458-.448.322-.865-1.218-1.358-1.192-3.454.181-1.345.881-3.088 2.196-3.874 2.921-6.37 5.879-25.168 13.244-39.16 15.342-2.58.387-4.692 1.015-4.692 1.395 0 .38 1.373 2.855 3.051 5.502 1.678 2.646 2.845 5.017 2.594 5.269-1.354 1.353-24.556 2.456-41.145 1.955-20.558-.621-32.942-2.546-45.494-7.074-10.791-3.892-23.103-10.806-21.716-12.193.354-.355 4.694-1.018 9.645-1.475 28.663-2.645 52.948-16.353 71.831-40.546 3.743-4.796 3.88-5.472 1.417-7.01-1.57-.98-2.488-.319-6.75 4.863C83.898 178.958 59.508 191.332 32 191.451l-11.5.049-1.292-12c-3.574-33.201 2.535-61.268 17.609-80.899 5.042-6.567 5.334-6.446 6.715 2.767.383 2.548.981 4.63 1.332 4.627.35-.002 2.997-4.658 5.883-10.347 9.14-18.015 20.335-30.486 35.233-39.249 10.482-6.166 27.628-12.378 30.043-10.885.537.332.982 1.815.988 3.295.006 1.48.282 4.33.613 6.334l.603 3.643 3.636-2.484c6.609-4.513 23.5-12.239 32.137-14.699 11.399-3.245 21.017-4.738 36-5.587l12.5-.709-13.917-.153c-7.654-.085-13.717-.353-13.473-.597.244-.244 6.056-.741 12.917-1.105 6.86-.363 12.66-.839 12.89-1.056 1.264-1.2-27.685.01-35.917 1.501m43.507 106.092c-.35.566.051.734.941.393 1.732-.665 2.049-1.382.611-1.382-.518 0-1.216.445-1.552.989M205.5 143c.34.55.816 1 1.059 1s.441-.45.441-1-.477-1-1.059-1-.781.45-.441 1m3.138.5c-.316.825-.139 1.5.393 1.5.533 0 .969-.675.969-1.5s-.177-1.5-.393-1.5c-.216 0-.652.675-.969 1.5M200.5 147c-.995 1.1-1.306 2-.69 2 .616 0 1.601-.9 2.19-2s.899-2 .69-2c-.209 0-1.195.9-2.19 2m-5 4c-.34.55.084 1 .941 1s1.559-.45 1.559-1-.423-1-.941-1-1.219.45-1.559 1m-9 6c-1.796 1.984-1.751 1.999 5.595 1.825 4.862-.114 5.927-.307 3.101-.56-2.536-.227-4.532-.977-4.857-1.825-.749-1.95-1.692-1.812-3.839.56m16.5 6.059c0 .582.45.781 1 .441s1-.816 1-1.059-.45-.441-1-.441-1 .477-1 1.059m-3.954 1.855c-.614 1.148-.699 2.086-.188 2.086 1.028 0 2.446-3.029 1.747-3.729-.244-.243-.945.496-1.559 1.643m1.054 3.381c-1.265 2.107-1.243 2.128.479.479.991-.95 1.587-1.942 1.324-2.205-.263-.263-1.074.514-1.803 1.726M196.5 172c-.34.55-.141 1 .441 1s1.059-.45 1.059-1-.198-1-.441-1-.719.45-1.059 1"/><path fill="#1976D2" fill-opacity=".175" fill-rule="evenodd" d="M109.75 41.662c.688.278 1.813.278 2.5 0 .688-.277.125-.504-1.25-.504s-1.937.227-1.25.504m-8.5 2c-2.338.828-4.25 1.921-4.25 2.43 0 .528.751.484 1.75-.102.963-.565 3.55-1.662 5.75-2.438 2.2-.776 3.325-1.407 2.5-1.403-.825.005-3.412.686-5.75 1.513M105 46c-.825.533-1.05.969-.5.969s1.675-.436 2.5-.969c.825-.533 1.05-.969.5-.969s-1.675.436-2.5.969m-10.5 1c-.34.55-.141 1 .441 1S96 47.55 96 47s-.198-1-.441-1-.719.45-1.059 1m-8.109 3.134c-9.035 4.808-13.754 8.328-21.484 16.028C58.305 72.737 49 85.468 49 87.925c0 2.344-1.881.895-2.5-1.925-.362-1.65-1.101-3-1.641-3-1.487 0-12.066 10.897-15.533 16-11.317 16.659-16.328 35.433-16.323 61.157.003 15.486 1.302 30.822 3.078 36.343 2.053 6.378 22.581 18.449 38.144 22.43 4.01 1.025 11.689 2.418 17.064 3.095 8.725 1.098 9.965 1.055 11.57-.398.989-.895 2.663-1.62 3.72-1.612 1.556.013 1.645.19.469.934-.799.506-1.811.697-2.25.426-.439-.271-.798.209-.798 1.066 0 .857.702 1.559 1.559 1.559s1.316-.393 1.019-.873c-.296-.48 2.265-1.226 5.691-1.658 5.439-.686 5.85-.878 3.231-1.509-1.65-.398-5.768-.777-9.151-.842-9.639-.185-28.107-3.709-37.911-7.233-9.005-3.237-22.532-10.666-23.229-12.757-.245-.736 1.345-1.128 4.577-1.128 14.307 0 36.933-6.294 46.965-13.064 2.392-1.615 4.664-2.945 5.049-2.957.385-.011 2.95-2.072 5.7-4.58s4.213-4.313 3.25-4.011c-2.313.726-2.208.116.401-2.314 2.478-2.308 4.565-1.715 2.691.765-.69.914.406.117 2.437-1.771 2.03-1.887 3.476-3.647 3.212-3.91-.263-.264-1.384.34-2.491 1.342-1.107 1.002-2.277 1.557-2.6 1.234-.323-.323 1.705-2.904 4.506-5.735 8.105-8.191 5.911-6.939-3.794 2.164-5.948 5.579-8.512 8.616-7.75 9.181.713.53.498.64-.578.295-1.021-.327-3.855.905-7 3.044-13.402 9.114-30.179 14.225-47.876 14.586l-11.342.231-.773-4c-.425-2.2-1.067-11.67-1.428-21.045-1.185-30.858 4.141-51.023 18.434-69.785 2.763-3.628 4.795-5.476 5.379-4.892.515.515 1.199 3.476 1.519 6.58.321 3.103.857 5.619 1.193 5.591.335-.029 2.181-3.291 4.1-7.25 5.083-10.484 13.955-23.409 20.306-29.583 3.046-2.961 5.424-5.886 5.285-6.5-.139-.614-.072-.802.149-.418.49.851 5.27-1.213 5.27-2.275 0-.416-.54-.936-1.201-1.157-.934-.311-.934-.564 0-1.142.661-.408 1.201-.265 1.201.317 0 1.748 1.451 1.251 8.639-2.959 5.908-3.46 6.375-3.925 3.361-3.349l-3.5.669 2.5-2.118c3.485-2.952 2.244-2.696-4.609.95m11.714-2.049c-1.318.527-2.173 1.18-1.902 1.452.272.271 2.025-.171 3.896-.983 3.704-1.607 1.908-2.03-1.994-.469M86 52.559c0 .857.45 1.281 1 .941.55-.34 1-1.041 1-1.559S87.55 51 87 51s-1 .702-1 1.559m-3.25 1.13c-.963.252-1.75.833-1.75 1.291 0 .458.9.597 2 .31 1.1-.288 2-.921 2-1.407 0-.485-.112-.831-.25-.767-.138.064-1.037.322-2 .573m35.25 2.87c0 .857.45 1.281 1 .941.55-.34 1-1.041 1-1.559s-.45-.941-1-.941-1 .702-1 1.559m-10.5 94.742c-3.457 4.234-3.89 5.155-1.375 2.921 1.756-1.56 3.165-2.051 4.47-1.556 1.785.676 1.799.615.226-.972-1.966-1.984-2.017-1.99-3.321-.393m-.006 4.705c-.998 1.104-1.579 2.243-1.29 2.531.289.289 1.271-.614 2.184-2.006 1.993-3.041 1.595-3.275-.894-.525m-6.395 7.244c-1.377 2.242-1.375 2.243.759.345 2.292-2.038 2.588-2.595 1.383-2.595-.418 0-1.382 1.012-2.142 2.25M83.5 177c-.782 1.266.542 1.266 2.5 0 1.293-.835 1.266-.971-.191-.985-.93-.008-1.969.435-2.309.985m-5.48 3.476c-.789.95-.865 1.524-.201 1.524 1.208 0 2.617-1.897 1.924-2.591-.252-.251-1.027.229-1.723 1.067M70 219.383c0 .211.901.619 2.001.907 1.101.288 1.75.115 1.441-.383-.538-.871-3.442-1.313-3.442-.524m19.75 1.279c.688.278 1.813.278 2.5 0 .688-.277.125-.504-1.25-.504s-1.937.227-1.25.504m-11 1c.688.278 1.813.278 2.5 0 .688-.277.125-.504-1.25-.504s-1.937.227-1.25.504m12.063 2.021c.721.289 1.584.253 1.916-.079.332-.332-.258-.568-1.312-.525-1.165.048-1.402.285-.604.604"/></svg>