<svg xmlns="http://www.w3.org/2000/svg" viewBox="0 0 120 100">
  <defs>
    <linearGradient id="a" x1="81656" x2="93290.203" y1="148466" y2="148466" gradientTransform="matrix(.01032 0 0 .0103 -842.318 -1480.222)" gradientUnits="userSpaceOnUse">
      <stop offset="0" stop-color="#13ff13"/>
      <stop offset="1" stop-color="#b0ffb0"/>
    </linearGradient>
  </defs>
  <path fill="url(#a)" fill-rule="evenodd" d="m56.142 3.699.825 5.772C73.47-.733 94.514-2.692 119.89 3.596c1.134 27.623-6.5 47.412-22.694 59.472l5.777.206a54.877 54.834 0 0 1-37.754 28.86c1.135 1.855 2.166 3.917 3.094 6.184-32.39 4.33-54.567.31-66.533-12.162-5.054-29.066.825-48.753 15.473-59.988.516 1.237.825 2.474 1.032 3.608A48.791 48.753 0 0 1 56.142 3.699zM4.772 83.064a48.894 48.856 0 0 0 43.84-21.13l.928-1.237 2.475 1.855-1.031 1.237a51.989 51.948 0 0 1-44.46 22.47c14.339 12.06 39.199 11.648 57.25 9.587a39.095 39.064 0 0 0-1.237-2.062l-2.27-3.814 4.436-.824A50.235 50.196 0 0 0 97.61 66.16h-9.696l7.427-5.566c17.432-12.884 21.97-34.013 21.662-54.628C97.3 1.534 76.257 1.225 58.515 12.15l-4.126 2.473-.516-4.741-.31-2.577A45.18 45.145 0 0 0 21.07 31.22l-4.436 8.245-1.135-7.73C2.296 44.824 1.677 65.438 4.462 83.064z" class="fil0" clip-rule="evenodd" shape-rendering="geometricPrecision" text-rendering="geometricPrecision"/>
  <path fill="#fff" d="M37.646 96.606c-11.536-.884-20.744-3.543-27.714-8.002-1.113-.712-1.307-.94-1.307-1.538 0-.697.01-.702 1.29-.702 1.999 0 5.529-.434 8.733-1.073 8.048-1.606 16.52-5.651 22.727-10.854 2.678-2.244 6.367-6.076 8.155-8.47.766-1.025 1.689-2.215 2.05-2.644l.66-.78-1.22-.91c-.672-.5-1.333-.907-1.47-.903-.137.004-.984 1.023-1.881 2.264-1.99 2.75-6.283 7.238-8.97 9.376-8.863 7.052-20.927 11.124-31.676 10.692-1.286-.052-2.382-.143-2.437-.203-.161-.176-.828-5.896-1.114-9.55-.329-4.201-.146-11.95.375-15.85 1.204-9.021 4.741-17.624 9.56-23.252.639-.746 1.017-.99 1.53-.99.374 0 .682.078.683.174.008.526.906 5.94 1.001 6.035.062.062.976-1.493 2.03-3.456 5.097-9.485 6.576-11.658 10.836-15.925 5.523-5.531 11.558-9.14 19.085-11.41 1.522-.46 3.252-.86 3.844-.89l1.076-.053.399 3.466c.219 1.906.43 3.496.468 3.534.038.038 1.538-.816 3.333-1.898 9.849-5.933 18.424-8.592 30.42-9.433 7.324-.514 15.034.084 24.916 1.932l3.82.715-.137 5.854c-.294 12.577-2.564 22.589-7.169 31.622-3.865 7.58-8.34 12.595-16.94 18.987-2.587 1.923-4.709 3.575-4.714 3.671-.005.096 2.036.175 4.536.175 3.65 0 4.546.062 4.546.313 0 .435-2.09 3.393-3.988 5.646-7.336 8.707-17.44 14.569-29.1 16.883-1.98.393-3.634.748-3.674.788-.041.041.67 1.31 1.579 2.82.909 1.509 1.566 2.824 1.46 2.922-.742.685-19.749 1.366-25.601.917z"/>
</svg>
