<?xml version="1.0" encoding="UTF-8" standalone="no"?>
<svg
   viewBox="0 0 512 512"
   version="1.1"
   id="svg11"
   sodipodi:docname="rueo_logo_512x512.svg"
   width="512"
   height="512"
   inkscape:version="1.1.1 (3bf5ae0d25, 2021-09-20, custom)"
   xmlns:inkscape="http://www.inkscape.org/namespaces/inkscape"
   xmlns:sodipodi="http://sodipodi.sourceforge.net/DTD/sodipodi-0.dtd"
   xmlns="http://www.w3.org/2000/svg"
   xmlns:svg="http://www.w3.org/2000/svg">
  <sodipodi:namedview
     id="namedview13"
     pagecolor="#ffffff"
     bordercolor="#999999"
     borderopacity="1"
     inkscape:pageshadow="0"
     inkscape:pageopacity="0"
     inkscape:pagecheckerboard="0"
     showgrid="false"
     fit-margin-top="0"
     inkscape:zoom="0.53625"
     inkscape:cx="356.17716"
     inkscape:cy="107.22611"
     inkscape:window-width="1920"
     inkscape:window-height="1025"
     inkscape:window-x="0"
     inkscape:window-y="26"
     inkscape:window-maximized="1"
     inkscape:current-layer="svg11" />
  <defs
     id="defs7">
    <linearGradient
       id="a"
       x1="81656"
       x2="93290.203"
       y1="148466"
       y2="148466"
       gradientTransform="matrix(0.04403201,0,0,0.04398094,-3593.8909,-6278.0404)"
       gradientUnits="userSpaceOnUse">
      <stop
         offset="0"
         stop-color="#13ff13"
         id="stop2" />
      <stop
         offset="1"
         stop-color="#b0ffb0"
         id="stop4" />
    </linearGradient>
  </defs>
  <path
     fill="url(#a)"
     fill-rule="evenodd"
     d="m 239.53888,58.294146 3.52,24.646409 C 313.47169,39.36953 403.25944,31.00461 511.53039,57.854337 516.36879,175.80439 483.8013,260.30331 414.70264,311.79945 l 24.64854,0.87962 A 234.1419,234.14088 0 0 1 278.26742,435.91111 c 4.84267,7.92083 9.2416,16.72557 13.20107,26.40565 C 153.27114,480.80584 58.649255,463.64045 7.5943156,410.38509 -13.969421,286.27342 11.114316,202.21003 73.612457,154.23665 c 2.2016,5.28198 3.520001,10.56396 4.403201,15.40614 A 208.17496,208.17505 0 0 1 239.53888,58.294146 Z M 20.360183,397.18227 A 208.61443,208.61485 0 0 0 207.41088,306.95728 l 3.95946,-5.28199 10.56001,7.92085 -4.39894,5.28197 A 221.81976,221.81768 0 0 1 27.839651,410.82916 c 61.175475,51.49613 167.244829,49.73263 244.266699,40.93218 a 166.80536,166.80307 0 0 0 -5.28213,-8.80474 l -9.68534,-16.28575 18.92694,-3.51849 a 214.33603,214.33665 0 0 0 140.40322,-98.15009 h -41.36961 l 31.68854,-23.76679 C 481.1645,246.22087 500.53092,156.00016 499.21251,67.974224 415.14636,49.049607 325.36289,47.730179 249.66368,94.384141 l -17.60427,10.559689 -2.2016,-20.244039 -1.32266,-11.003774 A 192.76803,192.76891 0 0 0 89.898326,175.80866 L 70.971389,211.01477 66.128723,178.0077 C 9.7959163,233.89767 7.1548489,321.91934 19.037517,397.18227 Z"
     class="fil0"
     clip-rule="evenodd"
     shape-rendering="geometricPrecision"
     text-rendering="geometricPrecision"
     id="path9"
     style="fill:url(#a);stroke-width:4.26833"
     inkscape:export-filename="/home/avathar/programming/rueo_front/src/assets/rueo_logo22.png"
     inkscape:export-xdpi="96"
     inkscape:export-ydpi="96" />
</svg>
