<svg xmlns="http://www.w3.org/2000/svg" viewBox="0 0 120 100">
  <defs>
    <linearGradient id="a" x1="81656" x2="93290.203" y1="148466" y2="148466" gradientTransform="matrix(.01032 0 0 .0103 -842.318 -1480.222)" gradientUnits="userSpaceOnUse">
      <stop offset="0" stop-color="#13ff13"/>
      <stop offset="1" stop-color="#b0ffb0"/>
    </linearGradient>
  </defs>
  <path fill="url(#a)" fill-rule="evenodd" d="m56.142 3.699.825 5.772C73.47-.733 94.514-2.692 119.89 3.596c1.134 27.623-6.499 47.412-22.694 59.472l5.777.206a54.877 54.834 0 0 1-37.754 28.86c1.135 1.855 2.166 3.917 3.094 6.184-32.39 4.33-54.567.31-66.533-12.162-5.054-29.066.825-48.753 15.473-59.988.516 1.237.825 2.474 1.032 3.608A48.791 48.753 0 0 1 56.142 3.699ZM4.772 83.064a48.894 48.856 0 0 0 43.84-21.13l.928-1.237 2.475 1.855-1.031 1.237A51.989 51.948 0 0 1 6.525 86.26c14.338 12.06 39.198 11.647 57.25 9.586a39.095 39.064 0 0 0-1.238-2.062l-2.27-3.814 4.436-.824A50.235 50.196 0 0 0 97.61 66.16h-9.696l7.427-5.566c17.432-12.884 21.971-34.013 21.662-54.628C97.3 1.534 76.257 1.225 58.515 12.151l-4.126 2.473-.516-4.741-.31-2.577A45.18 45.145 0 0 0 21.07 31.22l-4.436 8.245-1.135-7.73C2.296 44.824 1.677 65.438 4.462 83.064Z" class="fil0" clip-rule="evenodd" shape-rendering="geometricPrecision" text-rendering="geometricPrecision"/>
</svg>
