<?xml version="1.0" encoding="UTF-8" standalone="no"?>
<svg
   xml:space="preserve"
   id="svg945"
   fill-rule="evenodd"
   clip-rule="evenodd"
   image-rendering="optimizeQuality"
   shape-rendering="geometricPrecision"
   text-rendering="geometricPrecision"
   version="1.1"
   viewBox="0 0 1024 500"
   sodipodi:docname="rueo_logo_with_text_1024x500.svg"
   width="1024"
   height="500"
   inkscape:version="1.1.1 (3bf5ae0d25, 2021-09-20, custom)"
   xmlns:inkscape="http://www.inkscape.org/namespaces/inkscape"
   xmlns:sodipodi="http://sodipodi.sourceforge.net/DTD/sodipodi-0.dtd"
   xmlns="http://www.w3.org/2000/svg"
   xmlns:svg="http://www.w3.org/2000/svg"><sodipodi:namedview
   id="namedview1171"
   pagecolor="#ffffff"
   bordercolor="#999999"
   borderopacity="1"
   inkscape:pageshadow="0"
   inkscape:pageopacity="0"
   inkscape:pagecheckerboard="0"
   showgrid="false"
   inkscape:zoom="0.58611295"
   inkscape:cx="481.13593"
   inkscape:cy="110.04705"
   inkscape:window-width="1920"
   inkscape:window-height="1025"
   inkscape:window-x="0"
   inkscape:window-y="26"
   inkscape:window-maximized="1"
   inkscape:current-layer="svg945" />
  <defs
   id="defs916">
    <linearGradient
   id="id0"
   x1="81656"
   x2="93290.203"
   y1="148466"
   y2="148466"
   gradientUnits="userSpaceOnUse">
      <stop
   id="stop909"
   offset="0"
   stop-color="#13ff13" />
      <stop
   id="stop911"
   offset="1"
   stop-color="#b0ffb0" />
    </linearGradient>
    <style
   id="style914">
      .fil1{fill:green;fill-rule:nonzero}
    </style>
  </defs>
  <g
   id="Слой_x0020_1"
   transform="matrix(0.02159732,0,0,0.02171697,-1755.7196,-2960.9712)">
    <g
   id="_921261296">
      <path
   id="path918"
   fill="url(#id0)"
   d="m 87099.1,143973.6 c 24.4,181.7 48.9,367.3 73.5,556.9 1608.2,-985.9 3644.1,-1177 6107.6,-573.3 105.8,2681.7 -629.2,4607.3 -2204.9,5776.8 158.1,1.2 345.5,8.6 562.3,22.2 -910,1575.3 -2130,2508.7 -3660.1,2800 108.8,180 209.1,380.3 300.8,600.9 -3139,418.8 -5288.7,23.8 -6449.3,-1185.2 -488.6,-2822.3 73.7,-4733.2 1488.3,-5820.9 56.2,120.3 93.1,236.8 110.5,349.6 756.9,-1423.1 1980.7,-2265.5 3671.3,-2527 z m -4981.3,7705 c 1783.2,106.1 3180.1,-644.2 4247.6,-2057.4 l 90.4,-119.7 239.4,180.8 -90.4,119.7 c -1091.3,1444.6 -2524.2,2235.5 -4321.6,2184.1 1389.6,1166.9 3794.6,1124.4 5549.3,924 -35.3,-67.4 -72.5,-133.7 -111.7,-198.7 l -223.2,-369.2 423.8,-80.7 c 1400.3,-266.6 2426.6,-1086.8 3190.2,-2227.1 -12.9,-0.2 -25.7,-0.3 -38.6,-0.4 l -896.1,-6.8 719.6,-534.1 c 1689.8,-1254.2 2133.8,-3296.9 2090.9,-5296.9 -1903.9,-433.4 -3941,-462.5 -5658,590.1 l -394.7,242 -59.6,-459.2 c -10.6,-81.6 -21.3,-163.2 -32,-244.8 -1393.2,286.2 -2462.4,1023.6 -3150.4,2317.2 l -423.8,796.7 -115.1,-746.3 c -1278.3,1272.4 -1333.2,3266.6 -1069.1,4984.7 z"
   style="fill:url(#id0)" />
      <path
   id="path920"
   d="m 98181.9,147274.1 h 457.2 l -22.6,96.9 c -3.8,18.8 -7.5,43.3 -11.3,73.4 -3.8,30.1 -5.6,58.3 -5.6,84.7 0,109.1 22.5,198.5 67.7,266.2 45.1,67.7 101.6,120.4 169.3,159 67.8,37.6 143,63 225.8,76.2 82.8,13.1 161.8,19.7 237.1,19.7 191.9,0 365.9,-51.7 522.1,-156.1 156.1,-103.5 291.6,-235.2 406.4,-396.1 114.7,-160.9 207.9,-338.7 279.4,-535.3 71.5,-196.6 118.5,-386.6 141.1,-571.9 h -1394.2 l 50.8,-299.2 h 1394.2 c 7.5,-45.1 13.1,-93.1 16.9,-143.9 3.8,-50.8 5.7,-115.7 5.7,-194.7 0,-158.1 -17,-309.5 -50.8,-454.4 -33.9,-144.9 -87.5,-272.8 -160.9,-383.8 -73.4,-111 -166.5,-199.5 -279.4,-265.3 -112.9,-65.9 -248.4,-98.8 -406.4,-98.8 -79,0 -163.7,7.5 -254,22.6 -90.3,15 -177.8,49.8 -262.5,104.4 -84.6,54.6 -159.9,131.7 -225.7,231.4 -65.9,99.7 -110.1,234.3 -132.7,403.6 l -11.3,79 H 98481 l 107.3,-637.8 c 180.6,-169.3 389.4,-293.5 626.5,-372.5 237.1,-79.1 483.5,-118.6 739.4,-118.6 432.8,0 763,133.6 990.6,400.8 227.7,267.2 341.5,641.6 341.5,1123.2 0,413.9 -54.6,778.9 -163.7,1095 -109.1,316.1 -256.8,582.3 -443.1,798.7 -186.2,216.4 -401.7,380.1 -646.3,491.1 -244.6,111 -500.4,166.5 -767.6,166.5 -270.9,0 -504.2,-42.3 -699.9,-127 -195.7,-85.6 -357.5,-197.6 -485.4,-336.8 z"
   class="fil1" />
      <path
   id="1"
   d="m 101909.1,147226.1 c 0,-293.5 38.6,-551.2 115.7,-773.2 77.2,-222.1 181.6,-407.4 313.3,-556 131.7,-148.7 284.1,-260.6 457.2,-335.9 173.1,-75.2 355.6,-112.8 547.5,-112.8 105.3,0 202.2,12.2 290.7,36.6 88.4,24.5 166.5,56.5 234.2,96.9 67.7,39.6 125.1,83.8 172.2,132.7 47,49.8 85.6,96.9 115.7,142 l -84.7,482.6 h -400.7 l 11.2,-62.1 c 11.3,-56.4 17,-112.8 17,-169.3 0,-82.8 -11.3,-150.5 -33.9,-202.2 -22.6,-52.7 -51.7,-94.1 -87.5,-124.2 -35.7,-30.1 -75.2,-50.8 -118.5,-62.1 a 522.92,522.92 0 0 0 -132.6,-16.9 c -169.4,0 -311.4,51.7 -426.2,155.2 -114.8,102.5 -207,230.5 -276.6,382.9 -69.6,151.4 -119.4,316 -149.6,492 -30.1,176.8 -45.1,336.7 -45.1,478.8 0,112.9 10.3,219.2 31,318 20.7,99.7 54.6,188.1 101.6,265.2 47.1,76.2 107.3,136.5 180.7,179.7 73.3,43.3 162.7,64.9 268.1,64.9 146.7,0 275.6,-33.8 386.6,-101.6 111,-67.7 221.1,-161.8 330.2,-282.2 l 175,152.4 c -52.7,64 -112.9,128 -180.6,191.9 -67.8,64 -143,121.4 -225.8,172.2 -82.8,50.8 -173.1,91.2 -270.9,121.3 -97.9,30.1 -203.2,45.2 -316.1,45.2 -135.5,0 -263.4,-20.7 -383.9,-62.1 -120.4,-41.4 -225.7,-107.2 -316,-197.6 -90.3,-90.3 -162.8,-206 -217.3,-347.1 -54.6,-141.1 -81.9,-309.5 -81.9,-505.2 z"
   class="fil1" />
      <path
   id="2"
   d="m 106652.3,146543.2 c 7.6,-52.7 15.1,-111 22.6,-175 7.5,-64 11.3,-122.3 11.3,-175 0,-101.6 -26.3,-183.4 -79,-245.5 -52.7,-62.1 -129.9,-93.1 -231.5,-93.1 -97.8,0 -195.6,30.1 -293.5,90.3 -97.8,60.2 -188.1,134.5 -270.9,222.9 -82.8,88.4 -151.4,185.3 -206,290.7 -54.6,105.4 -89.4,203.2 -104.4,293.5 l -248.4,1524 h -564.4 c 15,-30.1 30.1,-67.7 45.1,-112.9 15.1,-45.1 30.1,-91.2 45.2,-138.3 15,-47 27.3,-93.1 36.7,-138.3 9.4,-45.1 17.8,-84.6 25.4,-118.5 l 327.3,-2015 h -389.4 l 39.5,-242.8 h 191.9 c 120.4,0 243.7,-4.7 369.7,-14.1 126.1,-9.4 236.1,-25.4 330.2,-47.9 l -129.8,756.3 h 11.3 c 146.7,-225.8 310.4,-408.3 491,-547.5 180.7,-139.2 368.8,-208.8 564.5,-208.8 191.9,0 333.9,55.5 426.1,166.5 92.2,111 138.3,245.5 138.3,403.5 0,94.1 -2.8,167.5 -8.4,220.2 -5.7,52.7 -12.3,103.5 -19.8,152.4 l -293.5,1642.5 h 395.1 l -45.2,242.7 h -197.5 c -120.4,0 -243.7,4.7 -369.7,14.1 -126.1,9.4 -238,25.4 -335.9,48 z"
   class="fil1" />
      <path
   id="3"
   d="m 108025.9,147254.4 c 0,-203.2 25.4,-411.1 76.2,-623.7 50.8,-212.6 135.4,-406.4 254,-581.4 118.5,-175 274.7,-318.9 468.4,-431.8 193.8,-112.9 431.8,-169.3 714.1,-169.3 154.2,0 282.2,19.7 383.8,59.2 101.6,39.5 181.5,87.5 239.9,144 58.3,56.4 98.7,118.5 121.3,186.2 22.6,67.8 33.9,129.8 33.9,186.3 0,210.7 -58.3,383.8 -175,519.3 -116.6,135.4 -263.4,243.6 -440.2,324.5 -176.9,80.9 -368.8,141.1 -575.8,180.6 -206.9,39.6 -402.6,70.6 -587,93.2 v 22.6 c 0,101.6 8.5,205 25.4,310.4 16.9,105.4 47,199.4 90.3,282.2 43.3,82.8 104.4,150.5 183.5,203.2 79,52.7 180.6,79 304.8,79 135.4,0 259.6,-30.1 372.5,-90.3 112.9,-60.2 235.2,-167.4 366.9,-321.7 l 174.9,146.7 c -60.2,75.3 -127,146.8 -200.3,214.5 -73.4,67.8 -154.3,127 -242.7,177.8 -88.5,50.8 -184.4,92.2 -287.9,124.2 -103.5,32 -215.4,48 -335.8,48 -116.7,0 -232.4,-19.8 -347.2,-59.3 -114.7,-39.5 -218.2,-102.5 -310.4,-189.1 -92.2,-86.5 -166.5,-198.5 -223,-335.8 -56.4,-137.4 -84.6,-303.9 -84.6,-499.5 z m 1800.5,-1164.7 c 0,-45.1 -4.7,-89.3 -14.1,-134.5 -9.4,-45.1 -27.3,-86.5 -53.6,-124.2 -26.3,-36.7 -63,-67.7 -110.1,-92.2 -47,-24.4 -108.2,-36.6 -183.4,-36.6 -97.9,0 -194.7,23.5 -290.7,70.5 -96,46.1 -184.4,118.5 -265.3,216.4 -80.9,96.9 -152.4,221 -214.5,373.4 -62.1,151.5 -108.2,334 -138.3,547.6 263.4,-22.6 477.9,-64 643.5,-123.3 165.6,-60.2 294.4,-128.9 386.6,-205.1 92.2,-77.1 155.3,-158.9 189.1,-244.6 33.9,-86.5 50.8,-168.3 50.8,-247.4 z"
   class="fil1" />
      <path
   id="4"
   d="m 111380.6,145753 h -389.5 l 45.2,-242.8 h 191.9 c 120.4,0 239.9,-3.7 358.4,-11.2 118.6,-7.6 232.4,-24.5 341.5,-50.8 l -118.5,677.3 h 5.6 c 37.7,-52.7 86.6,-117.6 146.8,-194.7 60.2,-77.2 132.6,-151.5 217.3,-223 84.7,-71.5 179.7,-132.6 285,-183.4 105.4,-50.8 222,-76.2 350,-76.2 124.2,0 232.3,25.4 324.5,76.2 92.2,50.8 167.5,122.3 225.8,214.4 58.3,92.2 102.6,200.4 132.7,324.6 30.1,124.2 45.1,259.6 45.1,406.4 0,270.9 -34.8,520.2 -104.4,747.9 -69.6,227.6 -165.6,424.2 -287.9,589.8 -122.3,165.6 -266.2,295.4 -431.8,389.5 -165.5,94.1 -344.3,141.1 -536.2,141.1 -79,0 -152.4,-10.4 -220.1,-31.1 -67.8,-20.7 -129.8,-47.9 -186.3,-81.8 -56.4,-33.9 -106.3,-70.6 -149.6,-110.1 -43.2,-39.5 -79.9,-78 -110,-115.7 h -11.3 c -7.5,56.5 -16,119.5 -25.4,189.1 -9.4,69.6 -17.9,130.8 -25.4,183.5 l -208.9,1315.1 h -564.4 c 15,-30.1 30.1,-67.7 45.2,-112.9 15,-45.1 30.1,-91.2 45.1,-138.3 15.1,-47 27.3,-93.1 36.7,-138.3 9.4,-45.1 17.9,-84.6 25.4,-118.5 z m 1636.9,782.6 c 0,-82.7 -6.6,-163.6 -19.8,-244.5 -13.1,-81 -37.6,-153.4 -73.4,-217.4 -35.7,-63 -82.7,-115.7 -141.1,-157.1 -58.3,-41.4 -132.6,-62 -222.9,-62 -116.7,0 -223,29.1 -318.9,87.4 -96,58.4 -180.6,129.9 -254,214.5 -73.4,84.7 -131.7,173.1 -175,265.3 -43.3,92.2 -70.6,174.1 -81.8,245.5 l -175,1017 c 52.7,67.7 123.2,133.6 211.6,199.4 88.5,65.9 204.2,98.8 347.2,98.8 127.9,0 247.4,-32 358.4,-96 111,-63.9 207,-157.1 287.9,-281.2 80.9,-124.2 143.9,-274.7 189,-453.5 45.2,-177.8 67.8,-383.8 67.8,-616.2 z"
   class="fil1" />
      <path
   id="5"
   d="m 114216,147333.4 c 0,-274.7 33.9,-526.8 101.6,-756.4 67.7,-229.5 162.7,-428 285,-595.4 122.3,-167.5 266.3,-298.3 431.8,-392.3 165.6,-94.1 346.2,-141.1 541.9,-141.1 165.6,0 302.9,36.6 412,110 109.2,73.4 201.4,159 276.6,256.8 h 11.3 l 118.5,-304.8 h 457.2 c -15,30.1 -30.1,67.8 -45.1,112.9 -15.1,45.2 -30.1,91.3 -45.2,138.3 -15,47.1 -28.2,93.2 -39.5,138.3 -11.3,45.2 -18.8,84.7 -22.6,118.5 l -327.3,2015.1 h 395.1 l -45.2,242.7 h -197.5 c -120.5,0 -239,3.8 -355.6,11.3 -116.7,7.5 -231.5,24.4 -344.3,50.8 l 124.1,-677.3 h -11.3 c -37.6,52.6 -86.5,117.6 -146.7,194.7 -60.2,77.1 -131.7,151.5 -214.5,222.9 -82.8,71.5 -176.9,132.7 -282.2,183.5 -105.4,50.8 -222,76.2 -350,76.2 -124.2,0 -231.4,-25.4 -321.7,-76.2 -90.3,-50.8 -165.6,-121.4 -225.8,-211.7 -60.2,-90.3 -105.3,-196.6 -135.4,-318.9 -30.2,-122.3 -45.2,-254.9 -45.2,-397.9 z m 1975.5,-1231.4 c -52.6,-67.8 -121.3,-134.6 -206,-199.5 -84.7,-65.8 -198.5,-98.7 -341.5,-98.7 -131.7,0 -253,32.9 -364,98.7 -111,65.9 -207,161.8 -287.9,289.8 -80.9,127.9 -143.9,284.1 -189.1,470.3 -45.1,185.4 -67.7,398 -67.7,638.8 0,71.5 6.6,143 19.7,216.4 13.2,73.3 37.7,141.1 73.4,203.2 35.8,61.1 82.8,111.9 141.1,151.4 58.3,39.5 132.7,59.3 223,59.3 116.6,0 222.9,-29.2 318.9,-87.5 95.9,-58.3 180.6,-129.8 254,-214.5 73.4,-84.6 132.6,-173.1 177.8,-265.3 45.1,-92.2 73.4,-174 84.6,-245.5 z"
   class="fil1" />
      <path
   id="6"
   d="m 118315.8,146994.7 -208.9,1281.3 h -564.4 c 15,-30.1 30.1,-67.7 45.1,-112.9 15.1,-45.1 30.1,-91.2 45.2,-138.3 15,-47 27.3,-93.1 36.7,-138.3 9.4,-45.1 17.8,-84.6 25.4,-118.5 l 327.3,-2015 h -389.4 l 39.5,-242.8 h 191.9 c 120.4,0 244.6,-4.7 372.5,-14.1 128,-9.4 239,-25.4 333.1,-47.9 l -203.2,1275.6 h 1123.2 l 191.9,-1213.6 h 564.4 c -15,30.1 -30.1,67.8 -45.1,112.9 -15.1,45.2 -29.2,91.3 -42.3,138.3 -13.2,47.1 -25.4,93.2 -36.7,138.3 -11.3,45.2 -18.8,84.7 -22.6,118.5 l -327.4,2015.1 h 395.1 l -45.1,242.7 h -197.6 c -120.4,0 -243.6,4.7 -369.7,14.1 -126.1,9.4 -238,25.4 -335.8,48 l 225.7,-1343.4 z"
   class="fil1" />
      <path
   id="7"
   d="m 124362.9,146543.2 c 7.5,-52.7 15,-111 22.6,-175 7.5,-64 11.2,-124.2 11.2,-180.6 0,-101.6 -20.6,-182.5 -62,-242.7 -41.4,-60.2 -111,-90.3 -208.9,-90.3 -97.8,0 -192.8,29.1 -285,87.4 -92.2,58.4 -175.9,132.7 -251.2,223 a 1513.22,1513.22 0 0 0 -191.9,293.5 c -52.7,105.4 -86.6,203.2 -101.6,293.5 l -259.7,1524 h -564.4 c 15.1,-30.1 30.1,-67.7 45.2,-112.9 15,-45.1 30.1,-91.2 45.1,-138.3 15.1,-47 27.3,-93.1 36.7,-138.3 9.4,-45.1 17.9,-84.6 25.4,-118.5 l 208.8,-1224.8 c 7.6,-52.7 15.1,-111 22.6,-175 7.6,-64 11.3,-124.2 11.3,-180.6 0,-101.6 -21.6,-182.5 -64.9,-242.7 -43.3,-60.2 -113.8,-90.3 -211.7,-90.3 -97.8,0 -193.8,30.1 -287.8,90.3 -94.1,60.2 -179.7,134.5 -256.8,222.9 a 1294.4,1294.4 0 0 0 -192,290.7 c -50.8,105.4 -83.7,203.2 -98.7,293.5 l -248.4,1524 h -564.4 c 15,-30.1 30.1,-67.7 45.1,-112.9 15.1,-45.1 30.1,-91.2 45.2,-138.3 15,-47 27.3,-93.1 36.7,-138.3 9.4,-45.1 17.8,-84.6 25.4,-118.5 l 327.3,-2015 h -389.4 l 39.5,-242.8 h 231.4 c 116.7,0 233.3,-4.7 350,-14.1 116.6,-9.4 220.1,-25.4 310.4,-47.9 l -129.8,756.3 h 11.3 c 146.7,-225.8 302.9,-408.3 468.5,-547.5 165.5,-139.2 344.3,-208.8 536.2,-208.8 101.6,0 187.2,15.9 256.8,47.9 69.6,32 125.1,74.4 166.5,127 41.4,52.7 71.5,115.7 90.3,189.1 18.8,73.4 28.2,149.6 28.2,228.6 0,3.8 -0.9,12.2 -2.8,25.4 -1.9,13.2 -2.8,29.2 -2.8,48 v 67.7 h 11.3 c 146.7,-222 301,-399.8 462.8,-533.4 161.8,-133.6 338.7,-200.3 530.6,-200.3 195.7,0 333,55.5 412,166.5 79.1,111 118.6,243.6 118.6,397.9 0,97.8 -2.8,173.1 -8.5,225.8 -5.6,52.7 -12.2,103.5 -19.7,152.4 l -287.9,1642.5 h 389.5 l -45.2,242.7 h -197.6 c -120.4,0 -243.6,4.7 -369.7,14.1 -126,9.4 -238,25.4 -335.8,48 z"
   class="fil1" />
      <path
   id="8"
   d="m 125736.4,147186.6 c 0,-270.9 37.6,-513.6 112.9,-728.1 75.3,-214.5 176.9,-397 304.8,-547.5 127.9,-150.5 277.5,-265.3 448.7,-344.3 171.2,-79 352.8,-118.5 544.7,-118.5 323.6,0 583.3,100.6 778.9,301.9 195.7,201.3 293.5,488.3 293.5,860.8 0,270.9 -37.6,512.7 -112.8,725.3 -75.3,212.6 -176,393.2 -302,541.9 -126.1,148.6 -273.8,262.4 -443.1,341.5 -169.3,79 -350,118.5 -541.9,118.5 -327.3,0 -589.8,-100.7 -787.4,-302 -197.5,-201.3 -296.3,-484.5 -296.3,-849.5 z m 1958.6,-591.7 c 0,-89.4 -6.6,-186.3 -19.7,-288.8 -13.2,-103.5 -40.5,-199.4 -81.9,-289.7 -41.4,-89.4 -98.8,-164.7 -172.1,-223.9 -73.4,-60.2 -168.4,-90.3 -285.1,-90.3 -120.4,0 -224.8,28.2 -313.2,84.6 -88.5,55.5 -165.6,129.8 -231.5,221.1 -65.8,92.2 -120.4,192.8 -163.7,303.8 -43.2,110.1 -77.1,221.1 -101.6,331.2 -24.4,111 -42.3,214.5 -53.6,312.3 -11.3,96.9 -16.9,175.9 -16.9,235.2 0,90.3 7.5,187.2 22.6,289.7 15,103.5 43.2,199.5 84.6,289.8 41.4,89.4 98.8,164.6 172.2,223.9 73.4,60.2 170.3,90.3 290.7,90.3 116.6,0 219.2,-28.2 307.6,-84.7 88.4,-55.5 164.6,-128.9 228.6,-218.2 64,-90.3 117.6,-191 160.9,-303.9 43.2,-111.9 77.1,-222.9 101.6,-331.1 24.4,-109.1 42.3,-211.7 53.6,-309.5 11.3,-96.9 16.9,-177.8 16.9,-241.8 z"
   class="fil1" />
      <path
   id="path930"
   d="m 95462.1,151649.1 c 0,-165.1 21.7,-310 65.1,-434.9 43.4,-124.9 102.1,-229.2 176.2,-312.8 74.1,-83.6 159.8,-146.5 257.2,-188.9 97.4,-42.3 200,-63.5 308,-63.5 59.2,0 113.7,6.9 163.5,20.7 49.7,13.7 93.7,31.7 131.8,54.5 38.1,22.2 70.3,47.1 96.8,74.6 26.4,28 48.1,54.5 65.1,79.9 l -47.6,271.4 h -225.5 l 6.4,-34.9 c 6.3,-31.7 9.5,-63.5 9.5,-95.2 0,-46.6 -6.3,-84.7 -19,-113.8 -12.7,-29.6 -29.2,-52.9 -49.3,-69.9 -20.1,-16.9 -42.3,-28.5 -66.6,-34.9 -24.4,-6.3 -49.2,-9.5 -74.6,-9.5 -95.3,0 -175.2,29.1 -239.8,87.3 -64.5,57.7 -116.4,129.7 -155.5,215.4 -39.2,85.2 -67.2,177.8 -84.2,276.7 -16.9,99.5 -25.4,189.5 -25.4,269.4 0,63.5 5.8,123.3 17.5,178.8 11.6,56.1 30.7,105.9 57.1,149.3 26.5,42.8 60.4,76.7 101.6,101 41.3,24.4 91.6,36.5 150.9,36.5 82.5,0 155,-19 217.4,-57.1 62.5,-38.1 124.4,-91 185.8,-158.8 l 98.4,85.8 c -29.6,36 -63.5,71.9 -101.6,107.9 -38.1,36 -80.4,68.3 -127,96.9 -46.6,28.5 -97.4,51.3 -152.4,68.2 -55,17 -114.3,25.4 -177.8,25.4 -76.2,0 -148.2,-11.6 -215.9,-34.9 -67.7,-23.3 -127,-60.3 -177.8,-111.1 -50.8,-50.8 -91.5,-115.9 -122.2,-195.3 -30.7,-79.4 -46.1,-174.1 -46.1,-284.2 z m 1540.7,365.2 c 88.9,0 166.1,-63.5 231.8,-190.5 65.6,-127 130.1,-306.9 193.6,-539.8 l 127,-463.5 h -219 l 22.2,-136.6 h 1139.8 c -8.5,17 -16.9,38.1 -25.4,63.5 -8.5,25.4 -16.4,51.4 -23.8,77.8 -7.4,26.5 -14.3,52.4 -20.6,77.8 -6.4,25.4 -10.6,47.6 -12.7,66.7 l -184.2,1133.5 h 222.3 l -25.4,136.5 h -108 c -67.7,0 -137.6,2.6 -209.5,7.9 -72,5.3 -134.5,14.3 -187.4,27 l 235,-1447.8 h -415.9 l -133.4,460.4 c -44.4,154.5 -88.9,292.1 -133.3,412.7 -44.5,120.7 -96.4,222.8 -155.6,306.4 -59.3,83.6 -128.1,148.2 -206.4,193.7 -78.3,45.5 -173.6,70.4 -285.7,74.6 l 41.2,-260.3 z m 1823.2,-387.4 c 0,-152.4 21.2,-288.9 63.5,-409.6 42.4,-120.6 99.5,-223.3 171.5,-307.9 71.9,-84.7 156.1,-149.3 252.4,-193.7 96.3,-44.5 198.4,-66.7 306.4,-66.7 182,0 328.1,56.6 438.1,169.9 110.1,113.2 165.1,274.6 165.1,484.2 0,152.4 -21.1,288.4 -63.5,408 -42.3,119.6 -98.9,221.2 -169.8,304.8 -70.9,83.6 -154,147.6 -249.3,192 -95.2,44.5 -196.8,66.7 -304.8,66.7 -184.1,0 -331.8,-56.6 -442.9,-169.8 -111.1,-113.3 -166.7,-272.6 -166.7,-477.9 z m 1101.8,-332.8 c 0,-50.3 -3.8,-104.8 -11.2,-162.5 -7.4,-58.2 -22.7,-112.2 -46,-163 -23.3,-50.2 -55.6,-92.6 -96.8,-125.9 -41.3,-33.9 -94.8,-50.8 -160.4,-50.8 -67.7,0 -126.4,15.9 -176.2,47.6 -49.7,31.2 -93.1,73 -130.2,124.4 -37,51.8 -67.7,108.5 -92,170.9 -24.4,61.9 -43.4,124.4 -57.2,186.3 -13.7,62.4 -23.8,120.6 -30.1,175.6 -6.4,54.6 -9.6,99 -9.6,132.3 0,50.8 4.3,105.3 12.7,163 8.5,58.2 24.4,112.2 47.7,163 23.2,50.3 55.5,92.6 96.8,125.9 41.3,33.9 95.8,50.8 163.5,50.8 65.6,0 123.3,-15.8 173,-47.6 49.8,-31.2 92.6,-72.5 128.6,-122.7 36,-50.8 66.2,-107.5 90.5,-171 24.4,-62.9 43.4,-125.4 57.2,-186.2 13.7,-61.4 23.8,-119.1 30.1,-174.1 6.4,-54.5 9.6,-100 9.6,-136 z m 610.4,367.7 c 0,-110 15.3,-224.8 46,-344.4 30.7,-119.6 79.9,-229.2 147.6,-328.7 67.8,-99.4 157.2,-180.9 268.3,-244.4 111.1,-63.5 248.2,-95.3 411.2,-95.3 48.7,0 97.9,4.8 147.6,14.3 49.8,9.5 95.3,27 136.5,52.4 41.3,25.4 75.2,60.3 101.6,104.8 26.5,44.4 39.7,101.6 39.7,171.4 0,95.3 -30.1,179.4 -90.5,252.4 -60.3,73.1 -149.7,127.6 -268.2,163.5 v 9.6 c 93.1,10.6 161.9,43.4 206.3,98.4 44.5,55 66.7,130.2 66.7,225.4 0,63.5 -13.2,127 -39.7,190.5 -26.4,63.5 -66.1,120.7 -119,171.5 -53,50.8 -119.1,92 -198.5,123.8 -79.4,31.8 -170.9,47.6 -274.6,47.6 -110.1,0 -202.2,-18 -276.2,-54 -74.1,-35.9 -133.9,-83.6 -179.4,-142.8 -45.5,-59.3 -77.8,-124.9 -96.9,-196.9 -19,-71.9 -28.5,-145 -28.5,-219.1 z m 917.5,97.4 c 0,-31.7 -3.7,-63 -11.1,-93.1 -7.4,-30.7 -20.1,-58.2 -38.1,-82.6 -18,-23.8 -42.8,-43.4 -74.6,-58.2 -31.7,-14.8 -70.9,-22.2 -117.5,-22.2 -21.1,0 -43.9,1.1 -68.2,3.2 -24.4,2.1 -61.9,5.3 -112.7,9.5 l -200.1,15.9 c -2.1,16.9 -3.1,32.8 -3.1,47.6 v 47.1 c 0,69.3 4.7,135.5 14.2,197.4 9.6,61.9 26.5,115.9 50.8,160.8 24.4,45.5 57.7,81.5 100.1,107.5 42.3,26.4 95.2,39.6 158.7,39.6 38.1,0 75.1,-7.4 111.1,-22.2 36,-14.8 68.3,-37 96.9,-67.7 28.5,-30.7 51.3,-69.3 68.2,-117 17,-47.1 25.4,-102.6 25.4,-165.6 z m -409.5,-376.8 c 91,-6.3 167.7,-21.1 230.1,-43.9 62.5,-23.3 113.3,-52.4 152.4,-87.3 39.2,-34.4 67.8,-73.5 85.8,-116.4 18,-43.4 27,-89.4 27,-137.6 0,-21.2 -3.2,-43.9 -9.6,-67.7 -6.3,-24.4 -16.9,-46.6 -31.7,-66.7 -14.8,-19.6 -34.9,-36.5 -60.3,-50.3 -25.4,-13.7 -58.3,-20.6 -98.5,-20.6 -63.5,0 -121.7,16.4 -174.6,49.2 -52.9,32.3 -100,76.7 -141.3,132.3 -41.3,56.1 -76.2,120.1 -104.8,192.6 -28.5,73 -50.2,149.2 -65,229.1 z m 1105.7,327.1 c 0,-154.5 19,-296.4 57.1,-425.5 38.1,-129.1 91.6,-240.7 160.4,-334.9 68.8,-94.2 149.7,-167.8 242.9,-220.7 93.1,-52.9 194.7,-79.4 304.8,-79.4 93.1,0 170.3,20.7 231.7,61.9 61.4,41.3 113.3,89.5 155.6,144.5 h 6.4 l 66.6,-171.5 h 257.2 c -8.5,17 -16.9,38.1 -25.4,63.5 -8.5,25.4 -16.9,51.4 -25.4,77.8 -8.5,26.5 -15.9,52.4 -22.2,77.8 -6.4,25.4 -10.6,47.6 -12.7,66.7 l -184.2,1133.5 h 222.3 l -25.4,136.5 h -111.1 c -67.8,0 -134.5,2.1 -200.1,6.4 a 1184.7,1184.7 0 0 0 -193.6,28.5 l 69.8,-381 h -6.3 c -21.2,29.7 -48.7,66.2 -82.6,109.6 -33.9,43.4 -74.1,85.2 -120.6,125.4 -46.6,40.2 -99.5,74.6 -158.8,103.2 -59.3,28.5 -124.9,42.8 -196.8,42.8 -69.9,0 -130.2,-14.3 -181,-42.8 -50.8,-28.6 -93.2,-68.3 -127,-119.1 -33.9,-50.8 -59.3,-110.6 -76.2,-179.4 -17,-68.8 -25.4,-143.4 -25.4,-223.8 z m 1111.2,-692.7 c -29.6,-38.1 -68.2,-75.7 -115.9,-112.2 -47.6,-37 -111.6,-55.6 -192,-55.6 -74.1,0 -142.4,18.6 -204.8,55.6 -62.5,37.1 -116.5,91 -162,163 -45.5,72 -80.9,159.8 -106.3,264.6 -25.4,104.2 -38.1,223.8 -38.1,359.3 0,40.2 3.7,80.4 11.1,121.7 7.4,41.3 21.2,79.4 41.3,114.3 20.1,34.4 46.5,63 79.3,85.2 32.8,22.2 74.7,33.3 125.5,33.3 65.6,0 125.4,-16.4 179.3,-49.2 54,-32.8 101.6,-73 142.9,-120.6 41.3,-47.7 74.6,-97.4 100,-149.3 25.4,-51.8 41.3,-97.9 47.7,-138.1 z m 978.8,-196.3 h -219.1 l 25.4,-136.6 h 108 c 67.7,0 134.9,-2.1 201.6,-6.3 66.6,-4.2 130.7,-13.8 192.1,-28.6 l -66.7,381 h 3.2 c 21.1,-29.6 48.6,-66.1 82.5,-109.5 33.9,-43.4 74.6,-85.2 122.2,-125.4 47.7,-40.2 101.1,-74.6 160.4,-103.2 59.2,-28.6 124.9,-42.9 196.8,-42.9 69.9,0 130.7,14.3 182.6,42.9 51.8,28.6 94.2,68.8 127,120.6 32.8,51.9 57.7,112.7 74.6,182.6 16.9,69.8 25.4,146 25.4,228.6 0,152.4 -19.6,292.6 -58.7,420.7 -39.2,128 -93.2,238.6 -162,331.8 -68.8,93.1 -149.7,166.1 -242.8,219 -93.2,53 -193.7,79.4 -301.7,79.4 -44.4,0 -85.7,-5.8 -123.8,-17.4 -38.1,-11.7 -73,-27 -104.8,-46.1 -31.7,-19 -59.8,-39.7 -84.1,-61.9 -24.4,-22.2 -45,-43.9 -61.9,-65.1 h -6.4 c -4.2,31.8 -9,67.2 -14.3,106.4 -5.3,39.1 -10,73.5 -14.2,103.2 l -117.5,739.8 h -317.5 c 8.4,-17 16.9,-38.1 25.4,-63.5 8.4,-25.4 16.9,-51.4 25.4,-77.8 8.4,-26.5 15.3,-52.4 20.6,-77.8 5.3,-25.4 10.1,-47.6 14.3,-66.7 z m 920.7,440.2 c 0,-46.5 -3.7,-92 -11.1,-137.5 -7.4,-45.6 -21.2,-86.3 -41.3,-122.3 -20.1,-35.4 -46.5,-65.1 -79.3,-88.4 -32.8,-23.2 -74.6,-34.9 -125.4,-34.9 -65.7,0 -125.5,16.4 -179.4,49.2 -54,32.8 -101.6,73.1 -142.9,120.7 -41.3,47.6 -74.1,97.4 -98.4,149.2 -24.4,51.9 -39.7,97.9 -46.1,138.1 l -98.4,572.1 c 29.6,38.1 69.3,75.1 119.1,112.1 49.7,37.1 114.8,55.6 195.2,55.6 72,0 139.2,-18 201.6,-54 62.5,-36 116.5,-88.3 162,-158.2 45.5,-69.8 80.9,-154.5 106.3,-255.1 25.4,-100 38.1,-215.9 38.1,-346.6 z m 727.9,693.2 c 0,-52.9 2.1,-94.1 6.3,-123.8 4.3,-29.6 8.5,-58.2 12.7,-85.7 l 158.8,-923.9 h -215.9 l 25.4,-136.6 h 107.9 c 67.8,0 137.1,-2.6 208,-7.9 70.9,-5.3 133.9,-14.3 188.9,-27 l -174.6,1009.7 c -4.3,27.5 -9,58.7 -14.3,93.6 -5.3,35 -7.9,69.4 -7.9,103.2 0,57.2 14.8,103.2 44.4,138.1 29.6,35 73,52.4 130.2,52.4 57.1,0 113.2,-16.9 168.3,-50.8 55,-33.8 104.7,-75.6 149.2,-125.4 a 788.9,788.9 0 0 0 112.7,-163.5 c 30.7,-59.3 50.3,-114.3 58.7,-165.1 l 139.7,-857.3 h 320.7 c -8.5,17 -16.9,38.1 -25.4,63.5 -8.5,25.4 -16.9,51.4 -25.4,77.8 -8.5,26.5 -15.9,52.4 -22.2,77.8 -6.4,25.4 -10.6,47.6 -12.7,66.7 l -184.2,1133.5 h 222.3 l -25.4,136.5 h -111.1 c -67.8,0 -136.6,2.6 -206.4,7.9 -69.9,5.3 -132.3,14.3 -187.3,27 l 79.3,-425.4 h -6.3 c -82.6,127 -175.2,229.6 -277.8,307.9 -102.7,78.4 -209.1,117.5 -319.1,117.5 -108,0 -187.9,-31.2 -239.7,-93.6 -51.9,-62.5 -77.8,-138.2 -77.8,-227.1 z m 2597.2,127 c 42.3,0 73,-14.8 92,-44.4 19.1,-29.6 33.9,-75.1 44.5,-136.5 l 276.2,-1724.1 h -234.9 l 25.4,-158.7 h 755.6 l -25.4,158.7 h -76.2 c -52.9,0 -91.5,9.6 -115.9,28.6 -24.3,19.1 -42.8,66.7 -55.5,142.9 l -101.6,635 h 266.7 l 530.2,-625.5 c 40.2,-46.5 60.3,-86.8 60.3,-120.6 0,-40.2 -24.3,-60.4 -73,-60.4 h -101.6 l 25.4,-158.7 h 720.7 l -25.4,158.7 h -19 c -72,0 -140.3,20.2 -204.8,60.4 -64.6,40.2 -124.4,92 -179.4,155.5 l -536.6,628.2 473.1,1060.9 h 225.4 l -28.6,158.8 h -476.2 l -457.2,-1089 h -231.8 l -149.2,930.2 h 225.4 l -28.6,158.8 h -755.6 l 25.4,-158.8 z m 2077.2,-454 c 0,-152.4 21.2,-288.9 63.5,-409.6 42.4,-120.6 99.5,-223.3 171.5,-307.9 71.9,-84.7 156.1,-149.3 252.4,-193.7 96.3,-44.5 198.4,-66.7 306.4,-66.7 182,0 328.1,56.6 438.1,169.9 110.1,113.2 165.1,274.6 165.1,484.2 0,152.4 -21.1,288.4 -63.5,408 -42.3,119.6 -98.9,221.2 -169.8,304.8 -70.9,83.6 -154,147.6 -249.3,192 -95.2,44.5 -196.8,66.7 -304.8,66.7 -184.1,0 -331.8,-56.6 -442.9,-169.8 -111.1,-113.3 -166.7,-272.6 -166.7,-477.9 z m 1101.8,-332.8 c 0,-50.3 -3.8,-104.8 -11.2,-162.5 -7.4,-58.2 -22.7,-112.2 -46,-163 -23.3,-50.2 -55.6,-92.6 -96.8,-125.9 -41.3,-33.9 -94.8,-50.8 -160.4,-50.8 -67.7,0 -126.4,15.9 -176.2,47.6 -49.7,31.2 -93.1,73 -130.2,124.4 -37,51.8 -67.7,108.5 -92,170.9 -24.4,61.9 -43.4,124.4 -57.2,186.3 -13.7,62.4 -23.8,120.6 -30.1,175.6 -6.4,54.6 -9.6,99 -9.6,132.3 0,50.8 4.3,105.3 12.7,163 8.5,58.2 24.4,112.2 47.7,163 23.2,50.3 55.5,92.6 96.8,125.9 41.3,33.9 95.8,50.8 163.5,50.8 65.6,0 123.3,-15.8 173,-47.6 49.8,-31.2 92.6,-72.5 128.6,-122.7 36,-50.8 66.2,-107.5 90.5,-171 24.4,-62.9 43.4,-125.4 57.2,-186.2 13.7,-61.4 23.8,-119.1 30.1,-174.1 6.4,-54.5 9.6,-100 9.6,-136 z"
   class="fil1" />
      <path
   id="9"
   d="m 112734.3,151519 -117.5,720.7 h -317.5 c 8.4,-16.9 16.9,-38.1 25.4,-63.5 8.4,-25.4 16.9,-51.3 25.4,-77.8 8.4,-26.4 15.3,-52.4 20.6,-77.8 5.3,-25.4 10.1,-47.6 14.3,-66.7 l 184.2,-1133.4 h -219.1 l 22.2,-136.6 h 108 c 67.7,0 137.5,-2.6 209.5,-7.9 72,-5.3 134.4,-14.3 187.3,-27 l -114.3,717.6 h 631.9 l 107.9,-682.7 h 317.5 c -8.5,17 -16.9,38.1 -25.4,63.5 -8.5,25.4 -16.4,51.4 -23.8,77.8 -7.4,26.5 -14.3,52.4 -20.6,77.8 -6.4,25.4 -10.6,47.6 -12.7,66.7 l -184.2,1133.5 h 222.3 l -25.4,136.5 h -111.2 c -67.7,0 -137,2.6 -207.9,7.9 -70.9,5.3 -133.9,14.3 -188.9,27 l 127,-755.6 z"
   class="fil1" />
      <path
   id="10"
   d="m 114151.1,151633.3 c 0,-137.6 19,-264.6 57.1,-381 38.1,-116.4 90,-216.5 155.6,-300.1 65.6,-83.6 141.3,-149.2 227,-196.8 85.7,-47.6 176.2,-71.5 271.5,-71.5 55,0 103.7,5.9 146,17.5 42.4,11.7 79.4,27 111.2,46 31.7,19.1 59.2,39.7 82.5,62 23.3,22.2 44.5,43.9 63.5,65 h 9.5 c 0,-97.3 -9.5,-196.3 -28.5,-296.8 -19.1,-100.6 -51.9,-191.6 -98.5,-273.1 -46.5,-81.5 -107.9,-148.7 -184.1,-201.6 -76.2,-52.9 -171.5,-81.5 -285.8,-85.7 l 31.8,-127 c 110,0 215.3,19 315.9,57.1 100.5,38.1 188.9,98.5 265.1,181 76.2,82.6 136.5,187.9 181,315.9 44.4,128.1 66.7,281 66.7,458.8 0,101.6 -6.4,205.9 -19.1,312.8 -12.7,106.9 -32.8,211.1 -60.3,312.7 -27.5,101.6 -63,197.4 -106.4,287.3 -43.4,90 -95.8,169.4 -157.1,238.2 -61.4,68.8 -133.4,122.7 -215.9,161.9 -82.6,39.1 -175.7,58.7 -279.4,58.7 -65.7,0 -131.3,-10.6 -196.9,-31.7 -65.6,-21.2 -124.4,-56.6 -176.2,-106.4 -51.9,-49.7 -94.2,-115.9 -127,-198.4 -32.8,-82.6 -49.2,-184.2 -49.2,-304.8 z m 1092.2,-584.8 c -36,-52.9 -81.5,-93.1 -136.5,-121.7 -55.1,-28.5 -120.7,-42.8 -196.9,-42.8 -82.5,0 -152.9,24.3 -211.1,72.5 -58.2,48.7 -106.4,110 -144.5,185.2 -38.1,74.6 -66.1,157.1 -84.1,247.6 -18,90.5 -27,177.8 -27,262.5 0,56.6 3.7,113.8 11.1,170.4 7.4,56.6 21.7,108.5 42.9,154.5 21.1,46.6 50.2,84.1 87.3,112.2 37,28.6 84.1,42.8 141.3,42.8 57.1,0 109.5,-17.9 157.1,-53.4 47.6,-36 90.5,-83.1 128.6,-140.8 38.1,-57.6 70.9,-124.8 98.4,-200.5 27.5,-75.7 50.8,-154 69.9,-235 19,-81.5 33.8,-160.8 44.4,-238.6 10.6,-77.8 17,-149.2 19.1,-214.9 z"
   class="fil1" />
      <path
   id="11"
   d="m 116136.3,150820.5 h -219.1 l 25.4,-136.6 h 108 c 67.7,0 134.9,-2.1 201.6,-6.3 66.6,-4.2 130.7,-13.8 192.1,-28.6 l -66.7,381 h 3.2 c 21.1,-29.6 48.6,-66.1 82.5,-109.5 33.9,-43.4 74.6,-85.2 122.2,-125.4 47.7,-40.2 101.1,-74.6 160.4,-103.2 59.2,-28.6 124.9,-42.9 196.8,-42.9 69.9,0 130.7,14.3 182.6,42.9 51.8,28.6 94.2,68.8 127,120.6 32.8,51.9 57.7,112.7 74.6,182.6 16.9,69.8 25.4,146 25.4,228.6 0,152.4 -19.6,292.6 -58.7,420.7 -39.2,128 -93.2,238.6 -162,331.8 -68.8,93.1 -149.7,166.1 -242.8,219 -93.2,53 -193.7,79.4 -301.7,79.4 -44.4,0 -85.7,-5.8 -123.8,-17.4 -38.1,-11.7 -73,-27 -104.8,-46.1 -31.7,-19 -59.8,-39.7 -84.1,-61.9 -24.4,-22.2 -45,-43.9 -61.9,-65.1 h -6.4 c -4.2,31.8 -9,67.2 -14.3,106.4 -5.3,39.1 -10,73.5 -14.2,103.2 l -117.5,739.8 h -317.5 c 8.4,-17 16.9,-38.1 25.4,-63.5 8.4,-25.4 16.9,-51.4 25.4,-77.8 8.4,-26.5 15.3,-52.4 20.6,-77.8 5.3,-25.4 10.1,-47.6 14.3,-66.7 z m 920.7,440.2 c 0,-46.5 -3.7,-92 -11.1,-137.5 -7.4,-45.6 -21.2,-86.3 -41.3,-122.3 -20.1,-35.4 -46.5,-65.1 -79.3,-88.4 -32.8,-23.2 -74.6,-34.9 -125.4,-34.9 -65.7,0 -125.5,16.4 -179.4,49.2 -54,32.8 -101.6,73.1 -142.9,120.7 -41.3,47.6 -74.1,97.4 -98.4,149.2 -24.4,51.9 -39.7,97.9 -46.1,138.1 l -98.4,572.1 c 29.6,38.1 69.3,75.1 119.1,112.1 49.7,37.1 114.8,55.6 195.2,55.6 72,0 139.2,-18 201.6,-54 62.5,-36 116.5,-88.3 162,-158.2 45.5,-69.8 80.9,-154.5 106.3,-255.1 25.4,-100 38.1,-215.9 38.1,-346.6 z"
   class="fil1" />
      <path
   id="12"
   d="m 117683.3,151709.5 c 0,-154.5 19,-296.4 57.1,-425.5 38.1,-129.1 91.6,-240.7 160.4,-334.9 68.8,-94.2 149.7,-167.8 242.9,-220.7 93.1,-52.9 194.7,-79.4 304.8,-79.4 93.1,0 170.3,20.7 231.7,61.9 61.4,41.3 113.3,89.5 155.6,144.5 h 6.4 l 66.6,-171.5 h 257.2 c -8.5,17 -16.9,38.1 -25.4,63.5 -8.5,25.4 -16.9,51.4 -25.4,77.8 -8.5,26.5 -15.9,52.4 -22.2,77.8 -6.4,25.4 -10.6,47.6 -12.7,66.7 l -184.2,1133.5 h 222.3 l -25.4,136.5 h -111.1 c -67.8,0 -134.5,2.1 -200.1,6.4 a 1184.7,1184.7 0 0 0 -193.6,28.5 l 69.8,-381 h -6.3 c -21.2,29.7 -48.7,66.2 -82.6,109.6 -33.9,43.4 -74.1,85.2 -120.6,125.4 -46.6,40.2 -99.5,74.6 -158.8,103.2 -59.3,28.5 -124.9,42.8 -196.8,42.8 -69.9,0 -130.2,-14.3 -181,-42.8 -50.8,-28.6 -93.2,-68.3 -127,-119.1 -33.9,-50.8 -59.3,-110.6 -76.2,-179.4 -17,-68.8 -25.4,-143.4 -25.4,-223.8 z m 1111.2,-692.7 c -29.6,-38.1 -68.2,-75.7 -115.9,-112.2 -47.6,-37 -111.6,-55.6 -192,-55.6 -74.1,0 -142.4,18.6 -204.8,55.6 -62.5,37.1 -116.5,91 -162,163 -45.5,72 -80.9,159.8 -106.3,264.6 -25.4,104.2 -38.1,223.8 -38.1,359.3 0,40.2 3.7,80.4 11.1,121.7 7.4,41.3 21.2,79.4 41.3,114.3 20.1,34.4 46.5,63 79.3,85.2 32.8,22.2 74.7,33.3 125.5,33.3 65.6,0 125.4,-16.4 179.3,-49.2 54,-32.8 101.6,-73 142.9,-120.6 41.3,-47.7 74.6,-97.4 100,-149.3 25.4,-51.8 41.3,-97.9 47.7,-138.1 z"
   class="fil1" />
      <path
   id="13"
   d="m 121430.6,151265 c 4.3,-29.7 8.5,-62.5 12.7,-98.5 4.3,-35.9 6.4,-69.8 6.4,-101.6 0,-57.1 -11.7,-102.6 -34.9,-136.5 -23.3,-33.8 -62.5,-50.8 -117.5,-50.8 -55.1,0 -108.5,16.4 -160.4,49.2 -51.8,32.8 -98.9,74.6 -141.2,125.4 a 850.28,850.28 0 0 0 -108,165.1 c -29.6,59.3 -48.7,114.3 -57.1,165.1 l -146.1,857.3 h -317.5 c 8.5,-16.9 16.9,-38.1 25.4,-63.5 8.5,-25.4 16.9,-51.3 25.4,-77.8 8.5,-26.4 15.3,-52.4 20.6,-77.8 5.3,-25.4 10.1,-47.6 14.3,-66.7 l 117.5,-688.9 c 4.2,-29.7 8.5,-62.5 12.7,-98.5 4.2,-35.9 6.4,-69.8 6.4,-101.6 0,-57.1 -12.2,-102.6 -36.6,-136.5 -24.3,-33.8 -64,-50.8 -119,-50.8 -55.1,0 -109,17 -161.9,50.8 -53,33.9 -101.1,75.7 -144.5,125.4 a 733.4,733.4 0 0 0 -108,163.5 c -28.5,59.3 -47.1,114.3 -55.5,165.1 l -139.7,857.3 h -317.5 c 8.4,-16.9 16.9,-38.1 25.4,-63.5 8.4,-25.4 16.9,-51.3 25.4,-77.8 8.4,-26.4 15.3,-52.4 20.6,-77.8 5.3,-25.4 10.1,-47.6 14.3,-66.7 l 184.2,-1133.4 h -219.1 l 22.2,-136.6 h 130.2 c 65.6,0 131.2,-2.6 196.8,-7.9 65.6,-5.3 123.9,-14.3 174.7,-27 l -73.1,425.5 h 6.4 c 82.5,-127 170.4,-229.7 263.5,-308 93.1,-78.3 193.7,-117.5 301.6,-117.5 57.2,0 105.3,9 144.5,27 39.1,18 70.4,41.8 93.7,71.4 23.2,29.7 40.2,65.1 50.8,106.4 10.5,41.3 15.8,84.1 15.8,128.6 0,2.1 -0.5,6.9 -1.6,14.3 -1,7.4 -1.5,16.4 -1.5,27 v 38.1 h 6.3 c 82.6,-124.9 169.3,-224.9 260.4,-300.1 91,-75.1 190.5,-112.7 298.4,-112.7 110.1,0 187.3,31.2 231.8,93.7 44.4,62.4 66.7,137 66.7,223.8 0,55.1 -1.6,97.4 -4.8,127 -3.2,29.7 -6.9,58.2 -11.1,85.7 l -161.9,924 h 219 l -25.4,136.5 h -111.1 c -67.7,0 -137.1,2.6 -208,7.9 -70.9,5.3 -133.8,14.3 -188.9,27 z"
   class="fil1" />
      <path
   id="14"
   d="m 122250.6,151820.6 c 0,-42.3 2.1,-81 6.3,-115.9 4.3,-34.9 10.6,-70.4 19.1,-106.4 l 165.1,-777.8 h -215.9 l 25.4,-136.6 h 107.9 c 67.8,0 137.6,-2.6 209.6,-7.9 71.9,-5.3 134.4,-14.3 187.3,-27 l -98.4,501.7 c -10.6,48.7 -21.7,94.2 -33.4,136.5 -11.6,42.3 -22.7,84.7 -33.3,127 h 9.5 c 25.4,-33.9 55.1,-67.2 88.9,-100 33.9,-32.8 70.4,-61.9 109.6,-87.3 39.1,-25.4 82,-46.1 128.6,-61.9 46.5,-15.9 96.3,-23.9 149.2,-23.9 52.9,0 102.1,8 147.6,23.9 45.5,15.8 85.2,40.7 119.1,74.6 33.8,33.8 60.3,77.2 79.4,130.1 19,53 28.5,117.5 28.5,193.7 0,95.3 -19.6,186.3 -58.7,273.1 -39.2,86.8 -91.6,162.4 -157.2,227 -65.6,64.5 -140.2,115.9 -223.8,154 -83.6,38.1 -170.9,57.1 -261.9,57.1 -175.7,0 -302.7,-41.8 -381,-125.4 -78.4,-83.6 -117.5,-193.1 -117.5,-328.6 z m 908,-233.9 c 0,-24.9 -3.1,-51.9 -9.5,-80.4 -6.3,-28.1 -17.5,-55.1 -33.3,-79.9 -15.9,-25.4 -38.1,-46.1 -66.7,-61.4 -28.6,-15.9 -65.1,-23.8 -109.5,-23.8 -42.4,0 -84.7,9 -127,27 -42.4,17.4 -81.5,40.7 -117.5,69.3 -36,28 -67.2,60.3 -93.7,95.8 -26.4,35.9 -42.8,70.3 -49.2,103.7 -12.7,61.4 -21.2,105.8 -25.4,133.9 -4.2,28.5 -6.3,57.6 -6.3,86.7 0,79.9 18.5,145.6 55.5,196.9 37.1,51.3 101.1,77.2 192.1,77.2 52.9,0 103.2,-14.2 150.8,-42.3 47.6,-28.6 89.4,-67.2 125.4,-116.9 36,-49.2 64.1,-106.9 84.2,-173.1 20.1,-66.1 30.1,-137 30.1,-212.7 z"
   class="fil1" />
      <path
   id="15"
   d="m 123791.3,151665 c 0,-114.3 14.2,-231.2 42.8,-350.8 28.6,-119.6 76.2,-228.6 142.9,-327 66.7,-98.5 154.5,-179.4 263.5,-242.9 109,-63.5 242.9,-95.3 401.7,-95.3 86.7,0 158.7,11.1 215.9,33.4 57.1,22.2 102.1,49.2 134.9,80.9 32.8,31.8 55.6,66.7 68.3,104.8 12.7,38.1 19,73 19,104.8 0,118.5 -32.8,215.9 -98.4,292.1 -65.6,76.2 -148.2,137 -247.7,182.5 -99.5,45.5 -207.4,79.4 -323.8,101.6 -116.4,22.3 -226.5,39.7 -330.2,52.4 v 12.7 c 0,57.2 4.7,115.4 14.3,174.6 9.5,59.3 26.4,112.2 50.8,158.8 24.3,46.6 58.7,84.7 103.2,114.3 44.4,29.6 101.6,44.4 171.4,44.4 76.2,0 146.1,-16.9 209.6,-50.8 63.5,-33.8 132.2,-94.1 206.3,-180.9 l 98.5,82.5 c -33.9,42.4 -71.5,82.6 -112.8,120.7 -41.2,38.1 -86.7,71.4 -136.5,100 -49.7,28.6 -103.7,51.8 -161.9,69.8 -58.2,18 -121.2,27 -188.9,27 -65.6,0 -130.7,-11.1 -195.3,-33.3 -64.5,-22.2 -122.8,-57.7 -174.6,-106.4 -51.9,-48.7 -93.7,-111.6 -125.4,-188.9 -31.8,-77.2 -47.6,-170.9 -47.6,-281 z m 1012.8,-655.1 c 0,-25.4 -2.7,-50.3 -8,-75.7 -5.3,-25.4 -15.3,-48.6 -30.1,-69.8 -14.8,-20.6 -35.5,-38.1 -61.9,-51.9 -26.5,-13.7 -60.9,-20.6 -103.2,-20.6 -55.1,0 -109.6,13.2 -163.5,39.7 -54,25.9 -103.8,66.7 -149.3,121.7 -45.5,54.5 -85.7,124.3 -120.6,210.1 -34.9,85.2 -60.9,187.8 -77.8,307.9 148.2,-12.7 268.8,-35.9 362,-69.3 93.1,-33.8 165.6,-72.5 217.4,-115.3 51.9,-43.4 87.4,-89.5 106.4,-137.6 19.1,-48.7 28.6,-94.7 28.6,-139.2 z"
   class="fil1" />
      <path
   id="16"
   d="m 125341.5,151661.8 c 0,-110 15.3,-224.8 46,-344.4 30.7,-119.6 79.9,-229.2 147.6,-328.7 67.8,-99.4 157.2,-180.9 268.3,-244.4 111.1,-63.5 248.2,-95.3 411.2,-95.3 48.7,0 97.9,4.8 147.6,14.3 49.8,9.5 95.3,27 136.5,52.4 41.3,25.4 75.2,60.3 101.6,104.8 26.5,44.4 39.7,101.6 39.7,171.4 0,95.3 -30.1,179.4 -90.5,252.4 -60.3,73.1 -149.7,127.6 -268.2,163.5 v 9.6 c 93.1,10.6 161.9,43.4 206.3,98.4 44.5,55 66.7,130.2 66.7,225.4 0,63.5 -13.2,127 -39.7,190.5 -26.4,63.5 -66.1,120.7 -119,171.5 -53,50.8 -119.1,92 -198.5,123.8 -79.4,31.8 -170.9,47.6 -274.6,47.6 -110.1,0 -202.2,-18 -276.2,-54 -74.1,-35.9 -133.9,-83.6 -179.4,-142.8 -45.5,-59.3 -77.8,-124.9 -96.9,-196.9 -19,-71.9 -28.5,-145 -28.5,-219.1 z m 917.5,97.4 c 0,-31.7 -3.7,-63 -11.1,-93.1 -7.4,-30.7 -20.1,-58.2 -38.1,-82.6 -18,-23.8 -42.8,-43.4 -74.6,-58.2 -31.7,-14.8 -70.9,-22.2 -117.5,-22.2 -21.1,0 -43.9,1.1 -68.2,3.2 -24.4,2.1 -61.9,5.3 -112.7,9.5 l -200.1,15.9 c -2.1,16.9 -3.1,32.8 -3.1,47.6 v 47.1 c 0,69.3 4.7,135.5 14.2,197.4 9.6,61.9 26.5,115.9 50.8,160.8 24.4,45.5 57.7,81.5 100.1,107.5 42.3,26.4 95.2,39.6 158.7,39.6 38.1,0 75.1,-7.4 111.1,-22.2 36,-14.8 68.3,-37 96.9,-67.7 28.5,-30.7 51.3,-69.3 68.2,-117 17,-47.1 25.4,-102.6 25.4,-165.6 z m -409.5,-376.8 c 91,-6.3 167.7,-21.1 230.1,-43.9 62.5,-23.3 113.3,-52.4 152.4,-87.3 39.2,-34.4 67.8,-73.5 85.8,-116.4 18,-43.4 27,-89.4 27,-137.6 0,-21.2 -3.2,-43.9 -9.6,-67.7 -6.3,-24.4 -16.9,-46.6 -31.7,-66.7 -14.8,-19.6 -34.9,-36.5 -60.3,-50.3 -25.4,-13.7 -58.3,-20.6 -98.5,-20.6 -63.5,0 -121.7,16.4 -174.6,49.2 -52.9,32.3 -100,76.7 -141.3,132.3 -41.3,56.1 -76.2,120.1 -104.8,192.6 -28.5,73 -50.2,149.2 -65,229.1 z"
   class="fil1" />
      <path
   id="17"
   d="m 126955.2,151709.5 c 0,-154.5 19,-296.4 57.1,-425.5 38.1,-129.1 91.6,-240.7 160.4,-334.9 68.8,-94.2 149.7,-167.8 242.9,-220.7 93.1,-52.9 194.7,-79.4 304.8,-79.4 93.1,0 170.3,20.7 231.7,61.9 61.4,41.3 113.3,89.5 155.6,144.5 h 6.4 l 66.6,-171.5 h 257.2 c -8.5,17 -16.9,38.1 -25.4,63.5 -8.5,25.4 -16.9,51.4 -25.4,77.8 -8.5,26.5 -15.9,52.4 -22.2,77.8 -6.4,25.4 -10.6,47.6 -12.7,66.7 l -184.2,1133.5 h 222.3 l -25.4,136.5 h -111.1 c -67.8,0 -134.5,2.1 -200.1,6.4 a 1184.7,1184.7 0 0 0 -193.6,28.5 l 69.8,-381 h -6.3 c -21.2,29.7 -48.7,66.2 -82.6,109.6 -33.9,43.4 -74.1,85.2 -120.6,125.4 -46.6,40.2 -99.5,74.6 -158.8,103.2 -59.3,28.5 -124.9,42.8 -196.8,42.8 -69.9,0 -130.2,-14.3 -181,-42.8 -50.8,-28.6 -93.2,-68.3 -127,-119.1 -33.9,-50.8 -59.3,-110.6 -76.2,-179.4 -17,-68.8 -25.4,-143.4 -25.4,-223.8 z m 1111.2,-692.7 c -29.6,-38.1 -68.2,-75.7 -115.9,-112.2 -47.6,-37 -111.6,-55.6 -192,-55.6 -74.1,0 -142.4,18.6 -204.8,55.6 -62.5,37.1 -116.5,91 -162,163 -45.5,72 -80.9,159.8 -106.3,264.6 -25.4,104.2 -38.1,223.8 -38.1,359.3 0,40.2 3.7,80.4 11.1,121.7 7.4,41.3 21.2,79.4 41.3,114.3 20.1,34.4 46.5,63 79.3,85.2 32.8,22.2 74.7,33.3 125.5,33.3 65.6,0 125.4,-16.4 179.3,-49.2 54,-32.8 101.6,-73 142.9,-120.6 41.3,-47.7 74.6,-97.4 100,-149.3 25.4,-51.8 41.3,-97.9 47.7,-138.1 z"
   class="fil1" />
      <path
   id="path941"
   fill="none"
   d="m 81293.4,143250.7 h 47413.3 v 10498.7 H 81293.4 Z" />
    </g>
  </g>
</svg>
